



Lucia Lane, an English writer by way of the US, arrives in Bombay to watch the filming of one of her novels. She's nearing middle age, she's had several husbands, she's lonely and self-absorbed. Hari, a screenwriter, offers to show her around. She's interested only in the film's leading man, Vikram, younger than she, married, and building a career as a matinee idol. Lucia takes every opportunity to be near "V," making scenes in front of his wife, demanding his attentions. Hari is long-suffering, carrying Lucia's messages to V, helping her out when the affair gets out of hand. Meanwhile, V's career suffers, with unpleasant repercussions. Who will bring things to a halt?  







General
Complete name                    : Bombay Talkie 1970 DVDRip GoGo.avi
IMDB Link                        : http://www.imdb.com/title/tt0065484/
Format                           : AVI
Format/Info                      : Audio Video Interleave
File size                        : 800 MiB
Duration                         : 1h 50mn
Overall bit rate                 : 1 013 Kbps
Writing application              : VirtualDubMod 1.5.4.1 (build 2178/release)
Writing library                  : VirtualDubMod build 2178/release

Video
ID                               : 0
Format                           : MPEG-4 Visual
Format profile                   : Advanced Simple@L5
Format settings, BVOP            : Yes
Format settings, QPel            : No
Format settings, GMC             : No warppoints
Format settings, Matrix          : Custom
Codec ID                         : XVID
Codec ID/Hint                    : XviD
Duration                         : 1h 50mn
Bit rate                         : 914 Kbps
Width                            : 608 pixels
Height                           : 320 pixels
Display aspect ratio             : 1.900
Frame rate                       : 23.976 fps
Resolution                       : 8 bits
Colorimetry                      : 4:2:0
Scan type                        : Progressive
Bits/(Pixel*Frame)               : 0.196
Stream size                      : 722 MiB (90%)
Writing library                  : XviD 1.2.1 (UTC 2008-12-04)

Audio
ID                               : 1
Format                           : MPEG Audio
Format version                   : Version 1
Format profile                   : Layer 3
Mode                             : Joint stereo
Format_Settings_ModeExtension    : MS Stereo
Codec ID                         : 55
Codec ID/Hint                    : MP3
Duration                         : 1h 50mn
Bit rate mode                    : Variable
Bit rate                         : 86.3 Kbps
Nominal bit rate                 : 128 Kbps
Channel(s)                       : 2 channels
Sampling rate                    : 48.0 KHz
Stream size                      : 68.2 MiB (9%)
Alignment                        : Aligned on interleaves
Interleave, duration             : 24 ms (0.58 video frame)
Interleave, preload duration     : 213 ms
Writing library                  : LAME3.98r
Encoding settings                : -m j -V 4 -q 2 -lowpass 17 --abr 128
Language                         : English
Subtitles                        : English.(.IDX+*.SUB)
                                 : English.(.srt)
Genre                            : Drama | Musical | Romance 

[img]http://imgboot.com/images/fasamoo/pleaseseed.gif[/img]